<svg enable-background="new 0 0 2000 763" viewBox="0 0 2000 763" xmlns="http://www.w3.org/2000/svg"><path d="m1258 764c-419.333313 0-838.166656 0-1257 0 0-254.333344 0-508.666672 0-763h2000v763c-247.5 0-495 0-743 0m-732.999023-268.52774c-11.565186 12.566711-24.092652 24.395294-34.445679 37.891876-12.234497 15.94928-23.475617 32.831176-33.486176 50.262878-8.294342 14.443115-15.062622 29.941712-20.879821 45.578064-5.805573 15.605225-10.334626 31.793091-14.036225 48.041504-3.332947 14.630066-5.04306 29.655335-6.954742 44.572266-.883881 6.897277-.70633 13.994201 4.049072 19.929992 5.820526 7.26532 13.551605 10.264222 22.700409 10.262513 97.824341-.018006 195.648621.007629 293.4729-.079834 3.926819-.00354 7.961731-.610901 11.758301-1.634278 10.562561-2.846985 16.807068-12.414306 16.80896-25.304748.014649-97.657654.008606-195.315369.008179-292.973023 0-1.166534.022522-2.334289-.021607-3.499389-.584839-15.437287-11.009094-27.119385-26.619079-25.444489-13.814759 1.48233-27.635803 3.161469-41.32312 5.51535-20.288819 3.489167-40.234742 8.820588-59.036866 17.136048-19.634277 8.683471-39.013 18.1586-57.701171 28.708832-19.611756 11.071685-37.11847 25.348419-54.293335 41.036438m161.499023-137.47226c20.999756-.000885 42.007812.31131 62.992554-.25061 4.532104-.121369 9.600342-2.566193 13.337585-5.380371 7.82135-5.889649 9.787903-14.30539 8.258301-23.930176-2.386963-15.020386-3.421631-30.306244-6.618103-45.137177-7.334473-34.030411-19.427002-66.378738-36.618897-96.784927-13.925293-24.628647-30.41455-47.39209-49.906433-67.796379-11.193115-11.717034-23.490417-22.443558-35.826233-32.989464-17.802307-15.219238-37.649536-27.512524-58.375549-38.341888-20.92456-10.933033-42.818115-19.551329-65.581909-25.76273-23.038757-6.286425-46.403839-10.582106-70.382233-11.8121-14.789764-.758657-24.964721 12.146082-24.929718 24.939084.272461 99.498691.249481 198.998691.040406 298.497684-.030243 14.396759 11.081817 24.922119 25.111999 24.87561 79.165344-.262481 158.332031-.126648 238.49823-.126556m-606.956749-197.936188c-9.165321 16.270081-18.798065 32.299927-27.328434 48.896363-5.50787 10.715942-10.001694 22.057128-13.895363 33.477661-8.941437 26.226288-14.553257 53.25235-17.176573 80.8461-.484359 5.094787-.619573 10.450866.404963 15.413635 2.141722 10.374359 11.899231 17.292297 23.198303 17.293701 100.13015.012421 200.260292.007416 300.39045.006744.833007 0 1.667328.018067 2.498779-.020813 11.460052-.535919 21.355164-10.717346 21.356506-22.072998.011902-101.129776-.053405-202.259643.088654-303.389221.016235-11.578592-9.954407-23.458746-22.604004-22.50945-8.254822.619489-16.532715 1.055013-24.752747 1.990552-20.787506 2.365863-41.04422 7.227635-60.951416 13.589829-21.509597 6.874311-42.221252 15.660846-61.740158 27.00803-12.008499 6.981056-24.057861 14.074321-35.206543 22.311428-19.318267 14.27314-37.968086 29.490776-53.332176 48.177055-10.382278 12.627243-20.34452 25.599838-30.950241 38.981384m-17.411873 416.283661c14.505928 26.760071 32.04335 51.437988 53.246681 73.19928 12.919869 13.259827 26.830239 25.749084 41.427636 37.133057 20.364227 15.881469 42.409637 29.279296 66.114685 39.915588 18.027542 8.088745 36.399505 15.097717 55.502288 19.980896 22.318757 5.705383 44.865967 10.002319 68.073243 10.592102 12.367462.314331 22.65271-11.911865 22.629852-22.728394-.213715-101.132324-.123627-202.265258-.15268-303.397979-.000518-1.792725-.144927-3.654663-.634063-5.366608-2.883087-10.090057-12.090546-16.667053-23.270416-16.668426-87.803864-.010804-175.607758-.006745-263.411629-.006745-12.662415 0-25.325329-.066437-37.98711.02414-12.879706.092102-22.846362 9.928192-22.580267 22.726348.161401 7.762726 1.099876 15.516785 1.857807 23.25824 2.170872 22.173157 7.048935 43.879608 14.651396 64.68927 6.964389 19.063111 16.09383 37.335205 24.532577 56.649231m950.879059-128.758789c-20.842285 42.654236-41.684631 85.308472-62.776733 128.473938-4.631043-10.165893-8.81427-20.042419-13.570008-29.635071-8.332946-16.808288-17.072693-33.414245-25.53778-50.157623-7.799378-15.426697-15.465516-30.920776-23.181214-46.38974-1.332702-2.671906-2.40979-5.504303-4.033996-7.981232-.630066-.960876-2.490357-1.614929-3.712769-1.509582-.798218.068725-1.886597 1.663238-2.114685 2.730377-4.078735 19.085388-8.088928 38.185699-12.026794 57.300751-6.575074 31.915741-13.092041 63.843414-19.625855 95.767669-2.381226 11.634583-4.740723 23.273682-7.273621 35.713746 9.614197 0 18.558045.133117 27.487366-.165833 1.136841-.038147 2.902466-2.19104 3.18927-3.605164 4.830872-23.819152 9.456543-47.679931 14.164307-71.524231 2.422607-12.270019 4.916992-24.525939 7.378967-36.788208 1.903381 1.29004 2.799133 2.756226 3.483948 4.315125 3.058716 6.963501 5.723877 14.121948 9.147583 20.898621 6.955261 13.767211 14.37561 27.298584 21.479919 40.991638 7.339112 14.145569 14.494263 28.386657 21.847596 42.52478.67572 1.299255 2.071166 2.658569 3.392089 3.007446.676697.178772 2.242005-1.653198 2.873291-2.855957 12.8042-24.396118 25.765381-48.714782 38.170166-73.313598 5.799744-11.501099 10.494446-23.559327 15.892212-35.824524.530274 1.551208 1.106934 2.818725 1.396729 4.148742 4.331665 19.878174 8.651489 39.758912 12.919555 59.650818 3.156739 14.712464 6.167115 29.456848 9.442627 44.142456.36023 1.615174 1.990601 4.157288 3.112183 4.200806 8.924439.34668 17.86853.193298 27.094116.193298-.130127-1.537719-.111938-2.340759-.275146-3.10498-7.601197-35.582825-15.244629-71.156738-22.824829-106.744019-5.239991-24.600677-10.328125-49.233978-15.680298-73.809997-.615112-2.824463-2.491394-5.374268-3.782898-8.051392-1.889832 2.251709-3.779663 4.503449-6.055298 7.40094m698.000549 179.642273c-.596557 4.338562 1.976563 4.817017 5.438477 4.802918 19.651367-.080079 39.303711.044311 58.954712-.063843 11.843994-.065186 23.503174-1.749268 34.540649-6.157227 12.591431-5.028564 22.77124-12.751587 27.276489-26.351929 3.39209-10.240051 4.865235-20.820434 3.542603-31.378295-1.773926-14.161255-7.413818-26.475647-21.176636-33.288697-3.784424-1.873474-7.619507-3.644836-11.775268-5.627075 1.226074-.989563 2.201904-1.803894 3.206543-2.580994 1.175293-.909118 2.475586-1.67987 3.550171-2.692627 12.424072-11.708251 15.698974-26.641326 14.151611-42.808197-1.502319-15.696899-9.479858-27.215393-24.177979-33.802398-11.89392-5.330231-24.574096-6.750733-37.293579-7.153809-16.470947-.522003-32.970703-.137054-49.45813-.124145-6.761718.00531-6.7854.02716-6.78601 6.915008-.005371 59.787628-.001709 119.575287.006347 180.31131m-436.962646-160.051331c7.733764 3.203888 15.467407 6.407776 23.846924 9.879181 2.905517-6.080261 6.04309-13.151764 9.640747-19.980743 2.097778-3.981659.874634-5.854706-2.756592-7.797516-15.887329-8.500122-33.123291-11.67569-50.774048-12.131195-19.981689-.515655-39.29602 3.174744-56.890747 13.303101-16.085083 9.259369-28.569824 22.32254-36.683594 38.855346-10.672973 21.747467-12.231689 45.012696-7.391601 68.497925 7.215088 35.009338 27.571167 59.215515 61.427856 71.405396 19.691773 7.089904 39.913941 7.089721 60.298706 3.391662 15.494751-2.810974 29.24353-9.301208 41.307251-19.355224 3.050659-2.542542 5.982422-5.152405 5.960205-9.823426-.108032-22.656433-.084594-45.313904-.012085-67.970642.01001-3.133362-1.011108-4.492065-4.307495-4.477844-20.157593.087158-40.31604.089783-60.473633-.002197-3.337036-.015259-4.329101 1.399231-4.263427 4.504516.133422 6.327759.177734 12.664551-.014527 18.989258-.108032 3.549194 1.367432 4.614075 4.728638 4.569397 9.82727-.130737 19.659912.088379 29.485718-.088257 3.723755-.066955 4.964721 1.309693 4.871826 4.951233-.191162 7.491882-.049561 14.992127-.049194 22.488953.000488 9.407898-1.719361 12.216186-10.724854 15.337951-12.571411 4.357911-25.358154 6.984437-38.899048 5.394043-22.659302-2.661315-39.02124-14.379638-50.180908-33.777893-9.148926-15.903076-10.581299-33.462951-8.953247-51.165039 1.186401-12.898407 6.295776-24.752838 14.852173-34.672729 13.619507-15.789948 31.029663-23.369477 51.905762-22.448548 7.754028.342041 15.47998 1.321717 24.049194 2.123291m290.084839 50.469605c-6.390503 13.481934-12.722046 26.992248-19.185181 40.43927-9.991089 20.78717-20.099731 41.517883-30.088501 62.306213-1.680908 3.49823-3.008545 7.16626-4.719238 11.285462h33.280762c4.843872-10.989807 9.611083-22.069458 14.680297-33.009217.723511-1.561401 2.900757-3.477783 4.418824-3.489624 26.990478-.211303 53.983398-.193237 80.974731-.040832 1.428955.007996 3.557495 1.308777 4.156372 2.576477 3.535767 7.485718 6.900147 15.065918 9.970337 22.754883 4.583252 11.478454 4.458984 11.528137 16.822022 11.528198 7.257568 0 14.515136-.000061 22.38562-.000061-.574463-1.829895-.755249-2.78418-1.158081-3.633057-10.092652-21.265014-20.192749-42.526489-30.325806-63.772277-8.065552-16.910889-16.112427-33.830994-24.282471-50.691407-11.212768-23.139801-22.499634-46.244049-33.87854-69.30249-.853515-1.729767-2.697265-2.970978-4.08081-4.439239-1.335694 1.529632-3.091065 2.856323-3.943848 4.619476-11.625855 24.036926-23.126587 48.134338-35.026489 72.868225m302.035766-37.60614c-.056274 3.662903-.151367 7.325653-.162109 10.988708-.041748 14.269043 4.9198 26.388428 15.02356 36.604554 7.990966 8.079467 17.929809 12.959716 27.672363 18.273803 8.704468 4.747925 17.658325 9.153137 25.884521 14.63617 12.879395 8.584411 16.118897 24.960022 7.274414 36.446838-5.604736 7.278992-14.222534 9.393799-23.019653 9.95221-14.495483.919982-26.841431-5.020081-38.239014-13.093262-3.075927-2.17865-4.472168-1.975708-6.158691 1.043396-4.018921 7.194031-8.117188 14.343628-12.289795 21.698791 6.151978 6.336487 13.87085 9.747986 21.842651 12.484375 14.75293 5.063965 29.854004 7.434754 45.484864 4.903076 11.848632-1.91925 23.057495-5.754577 31.842163-13.977172 24.468261-22.902893 22.841919-63.064148-8.176514-83.414368-9.675049-6.347473-19.919556-11.845459-30.032349-17.501709-8.161254-4.564758-15.995849-9.474121-22.166992-16.652527-8.08374-9.402954-8.040771-28.230987 6.036499-34.324005 14.327393-6.201263 28.104492-3.998779 41.239868 3.759491 2.63147 1.554169 5.069336 3.435913 7.905274 5.378143 4.548096-7.649048 8.860962-14.696991 12.880981-21.908172.540528-.969483.096192-3.503571-.728759-4.049897-4.535645-3.003936-9.115235-6.115173-14.080689-8.262756-12.72937-5.505432-26.002319-6.73352-39.865478-5.169006-21.617676 2.439666-44.367066 15.037597-48.167115 42.183319m-449.168945-15.543091c0 10.327057-.000122 20.654083.000122 30.98114.000732 43.47345.021729 86.946961-.033935 130.420349-.004761 3.696778.128295 6.238343 5.152343 6.19336 24.982666-.224121 49.96875-.155213 74.953003-.045411 3.611328.01587 5.137085-1.062072 4.978394-4.839233-.230469-5.486877-.341919-11.010498.033447-16.481506.329712-4.804138-1.706543-5.869263-6.077881-5.804505-14.154907.209656-28.314819.087525-42.4729.06836-6.494629-.008789-6.524048-.035034-6.525269-6.678162-.009277-49.636413-.005615-99.272797-.007202-148.90918 0-1.665618-.116333-3.339019.005859-4.995178.234009-3.172577-1.045898-4.502502-4.315551-4.436188-7.159302.145264-14.325806.152649-21.484742-.000122-3.376953-.072052-4.28894 1.469727-4.229003 4.538727.123535 6.326904.028442 12.658142.023315 19.987549m-328 65c0 3.330322-.000122 6.660645.000122 9.990967.001587 28.973877.084839 57.948303-.082153 86.921203-.025391 4.404969 1.346313 5.896668 5.712402 5.661988 5.811279-.312317 11.651978-.063355 17.480103-.077149 6.855713-.016235 6.881469-.026306 6.882812-6.822143.008789-44.293396.005982-88.586853.005615-132.880249-.000244-15.652558-.119262-31.306519.070069-46.956726.050171-4.15033-1.336792-5.581574-5.449951-5.402527-6.149415.267669-12.335206.340667-18.475098-.021515-4.787598-.28244-6.278565 1.311096-6.241821 6.161194.207275 27.473663.098877 54.949707.0979 83.424957z" fill="#ffffff"/><g fill="#001f3f"><path d="m525.253296 495.222839c16.922546-15.438598 34.42926-29.715332 54.041016-40.787017 18.688171-10.550232 38.066894-20.025361 57.701171-28.708832 18.802124-8.31546 38.748047-13.646881 59.036866-17.136048 13.687317-2.353881 27.508361-4.03302 41.32312-5.51535 15.609985-1.674896 26.03424 10.007202 26.619079 25.444489.044129 1.1651.021607 2.332855.021607 3.499389.000427 97.657654.00647 195.315369-.008179 292.973023-.001892 12.890442-6.246399 22.457763-16.80896 25.304748-3.79657 1.023377-7.831482 1.630738-11.758301 1.634278-97.824279.087463-195.648559.061828-293.4729.079834-9.148804.001709-16.879883-2.997193-22.700409-10.262513-4.755402-5.935791-4.932953-13.032715-4.049072-19.929992 1.911682-14.916931 3.621795-29.9422 6.954742-44.572266 3.701599-16.248413 8.230652-32.436279 14.036225-48.041504 5.817199-15.636352 12.585479-31.134949 20.879821-45.578064 10.010559-17.431702 21.251679-34.313598 33.486176-50.262878 10.353027-13.496582 22.880493-25.325165 34.697998-38.141297z"/><path d="m686 358c-79.666199-.000092-158.832886-.135925-237.99823.126556-14.030182.046509-25.142242-10.478851-25.111999-24.87561.209075-99.498993.232055-198.998993-.040406-298.497684-.035003-12.793002 10.139954-25.697741 24.929718-24.939084 23.978394 1.229994 47.343476 5.525675 70.382233 11.8121 22.763794 6.211401 44.657349 14.829697 65.581909 25.76273 20.726013 10.829364 40.573242 23.12265 58.375549 38.341888 12.335816 10.545906 24.633118 21.27243 35.826233 32.989464 19.491883 20.404289 35.98114 43.167732 49.906433 67.796379 17.191895 30.406189 29.284424 62.754516 36.618897 96.784927 3.196472 14.830933 4.23114 30.116791 6.618103 45.137177 1.529602 9.624786-.436951 18.040527-8.258301 23.930176-3.737243 2.814178-8.805481 5.259002-13.337585 5.380371-20.984742.56192-41.992798.249725-63.492554.25061z"/><path d="m79.771042 159.782104c10.37793-13.099838 20.340172-26.072433 30.72245-38.699676 15.36409-18.686279 34.013909-33.903915 53.332176-48.177055 11.148682-8.237107 23.198044-15.330372 35.206543-22.311428 19.518906-11.347184 40.230561-20.133719 61.740158-27.00803 19.907196-6.362194 40.16391-11.223966 60.951416-13.589829 8.220032-.935539 16.497925-1.371063 24.752747-1.990552 12.649597-.949296 22.620239 10.930858 22.604004 22.50945-.142059 101.129578-.076752 202.259445-.088654 303.389221-.001342 11.355652-9.896454 21.537079-21.356506 22.072998-.831451.03888-1.665772.020813-2.498779.020813-100.130158.000672-200.2603.005677-300.39045-.006744-11.299072-.001404-21.056581-6.919342-23.198303-17.293701-1.024536-4.962769-.889322-10.318848-.404963-15.413635 2.623316-27.59375 8.235136-54.619812 17.176573-80.8461 3.893669-11.420533 8.387493-22.761719 13.895363-33.477661 8.530369-16.596436 18.163113-32.626282 27.556225-49.178071z"/><path d="m61.999725 576.000793c-8.307094-18.967346-17.436535-37.23944-24.400924-56.302551-7.602461-20.809662-12.480524-42.516113-14.651396-64.68927-.757931-7.741455-1.696406-15.495514-1.857807-23.25824-.266095-12.798156 9.700561-22.634246 22.580267-22.726348 12.661781-.090577 25.324695-.02414 37.98711-.02414 87.803871 0 175.607765-.004059 263.411629.006745 11.17987.001373 20.387329 6.578369 23.270416 16.668426.489136 1.711945.633545 3.573883.634063 5.366608.029053 101.132721-.061035 202.265655.15268 303.397979.022858 10.816529-10.26239 23.042725-22.629852 22.728394-23.207276-.589783-45.754486-4.886719-68.073243-10.592102-19.102783-4.883179-37.474746-11.892151-55.502288-19.980896-23.705048-10.636292-45.750458-24.034119-66.114685-39.915588-14.597397-11.383973-28.507767-23.87323-41.427636-37.133057-21.203331-21.761292-38.740753-46.439209-53.378334-73.54596z"/><path d="m1013.203308 447.265808c2.082764-2.574615 3.972595-4.826355 5.862427-7.078064 1.291504 2.677124 3.167786 5.226929 3.782898 8.051392 5.352173 24.576019 10.440307 49.20932 15.680298 73.809997 7.5802 35.587281 15.223632 71.161194 22.824829 106.744019.163208.764221.145019 1.567261.275146 3.10498-9.225586 0-18.169677.153382-27.094116-.193298-1.121582-.043518-2.751953-2.585632-3.112183-4.200806-3.275512-14.685608-6.285888-29.429992-9.442627-44.142456-4.268066-19.891906-8.58789-39.772644-12.919555-59.650818-.289795-1.330017-.866455-2.597534-1.396729-4.148742-5.397766 12.265197-10.092468 24.323425-15.892212 35.824524-12.404785 24.598816-25.365966 48.91748-38.170166 73.313598-.631286 1.202759-2.196594 3.034729-2.873291 2.855957-1.320923-.348877-2.716369-1.708191-3.392089-3.007446-7.353333-14.138123-14.508484-28.379211-21.847596-42.52478-7.104309-13.693054-14.524658-27.224427-21.479919-40.991638-3.423706-6.776673-6.088867-13.93512-9.147583-20.898621-.684815-1.558899-1.580567-3.025085-3.483948-4.315125-2.461975 12.262269-4.95636 24.518189-7.378967 36.788208-4.707764 23.8443-9.333435 47.705079-14.164307 71.524231-.286804 1.414124-2.052429 3.567017-3.18927 3.605164-8.929321.29895-17.873169.165833-27.487366.165833 2.532898-12.440064 4.892395-24.079163 7.273621-35.713746 6.533814-31.924255 13.050781-63.851928 19.625855-95.767669 3.937866-19.115052 7.948059-38.215363 12.026794-57.300751.228088-1.067139 1.316467-2.661652 2.114685-2.730377 1.222412-.105347 3.082703.548706 3.712769 1.509582 1.624206 2.476929 2.701294 5.309326 4.033996 7.981232 7.715698 15.468964 15.381836 30.963043 23.181214 46.38974 8.465087 16.743378 17.204834 33.349335 25.53778 50.157623 4.755738 9.592652 8.938965 19.469178 13.570008 29.635071 21.092102-43.165466 41.934448-85.819702 62.969604-128.796814z"/><path d="m1711.007446 626.756714c-.004516-60.26178-.008178-120.049439-.002807-179.837067.00061-6.887848.024292-6.909698 6.78601-6.915008 16.487427-.012909 32.987183-.397858 49.45813.124145 12.719483.403076 25.399659 1.823578 37.293579 7.153809 14.698121 6.587005 22.67566 18.105499 24.177979 33.802398 1.547363 16.166871-1.727539 31.099946-14.151611 42.808197-1.074585 1.012757-2.374878 1.783509-3.550171 2.692627-1.004639.7771-1.980469 1.591431-3.206543 2.580994 4.155761 1.982239 7.990844 3.753601 11.775268 5.627075 13.762818 6.81305 19.40271 19.127442 21.176636 33.288697 1.322632 10.557861-.150513 21.138244-3.542603 31.378295-4.505249 13.600342-14.685058 21.323365-27.276489 26.351929-11.037475 4.407959-22.696655 6.092041-34.540649 6.157227-19.651001.108154-39.303345-.016236-58.954712.063843-3.461914.014099-6.035034-.464356-5.442017-5.277161m79.331299-22.735474c8.971924-3.217102 14.977173-9.144348 17.882813-18.421081 5.4458-17.387879-1.682496-36.026062-21.779786-38.641724-13.902221-1.809387-28.098144-1.433777-42.169311-1.728577-1.055298-.022155-3.0896 2.403748-3.104858 3.7099-.208863 17.962708-.109986 35.928772-.177491 53.893677-.010864 2.922424 1.005738 4.273254 4.056153 4.176697 4.154174-.131592 8.31604-.005921 12.474609-.012512 10.758789-.01709 21.578003.646789 32.817871-2.97638m4.703003-98.54721c8.217651-17.354981 3.199585-35.650361-18.141479-38.341034-10.64563-1.342194-21.531373-.755738-32.306275-1.109925-3.448486-.113342-3.592651 2.083557-3.589599 4.59961.018432 15.145965.087402 30.292694-.052735 45.437378-.033325 3.596801 1.039917 5.084106 4.823975 4.992553 8.483398-.205383 17.007812.40387 25.455078-.185669 10.217895-.713195 19.004272-4.502136 23.811035-15.392913z"/><path d="m1273.633057 467.123291c-8.153931-.745239-15.879883-1.724915-23.633911-2.066956-20.876099-.920929-38.286255 6.6586-51.905762 22.448548-8.556397 9.919891-13.665772 21.774322-14.852173 34.672729-1.628052 17.702088-.195679 35.261963 8.953247 51.165039 11.159668 19.398255 27.521606 31.116578 50.180908 33.777893 13.540894 1.590394 26.327637-1.036132 38.899048-5.394043 9.005493-3.121765 10.725342-5.930053 10.724854-15.337951-.000367-7.496826-.141968-14.997071.049194-22.488953.092895-3.64154-1.148071-5.018188-4.871826-4.951233-9.825806.176636-19.658448-.04248-29.485718.088257-3.361206.044678-4.83667-1.020203-4.728638-4.569397.192261-6.324707.147949-12.661499.014527-18.989258-.065674-3.105285.926391-4.519775 4.263427-4.504516 20.157593.09198 40.31604.089355 60.473633.002197 3.296387-.014221 4.317505 1.344482 4.307495 4.477844-.072509 22.656738-.095947 45.314209.012085 67.970642.022217 4.671021-2.909546 7.280884-5.960205 9.823426-12.063721 10.054016-25.8125 16.54425-41.307251 19.355224-20.384765 3.698059-40.606933 3.698242-60.298706-3.391662-33.856689-12.189881-54.212768-36.396058-61.427856-71.405396-4.840088-23.485229-3.281372-46.750458 7.391601-68.497925 8.11377-16.532806 20.598511-29.595977 36.683594-38.855346 17.594727-10.128357 36.909058-13.818756 56.890747-13.303101 17.650757.455505 34.886719 3.631073 50.774048 12.131195 3.631226 1.94281 4.85437 3.815857 2.756592 7.797516-3.597657 6.828979-6.73523 13.900482-9.640747 19.980743-8.379517-3.471405-16.11316-6.675293-24.262207-9.935516z"/><path d="m1564.317261 517.323486c11.71582-24.408142 23.216552-48.505554 34.842407-72.54248.852783-1.763153 2.608154-3.089844 3.943848-4.619507 1.383545 1.468292 3.227295 2.709503 4.08081 4.43927 11.378906 23.058441 22.665772 46.162689 33.87854 69.30249 8.170044 16.860413 16.216919 33.780518 24.282471 50.691407 10.133057 21.245788 20.233154 42.507263 30.325806 63.772277.402832.848877.583618 1.803162 1.158081 3.633057-7.870484 0-15.128052.000061-22.38562.000061-12.363038-.000061-12.23877-.049744-16.822022-11.528198-3.07019-7.688965-6.43457-15.269165-9.970337-22.754883-.598877-1.2677-2.727417-2.568481-4.156372-2.576477-26.991333-.152405-53.984253-.170471-80.974731.040832-1.518067.011841-3.695313 1.928223-4.418824 3.489624-5.069214 10.939759-9.836425 22.01941-14.680297 33.009217-10.973877 0-21.746827 0-33.280762 0 1.710693-4.119202 3.03833-7.787232 4.719238-11.285462 9.98877-20.78833 20.097412-41.519043 30.088501-62.306213 6.463135-13.447022 12.794678-26.957336 19.369263-40.765015m40.478882-17.664917c-3.068848-2.496826-3.100708 1.03476-3.61377 2.158692-7.352051 16.10791-14.559448 32.282104-21.757202 48.460083-2.460449 5.529846-4.798218 11.114258-7.372192 17.092163h62.073242c-9.936646-22.855591-19.554444-44.978089-29.330078-67.710938z"/><path d="m1866.29126 479.61203c3.677734-26.714661 26.427124-39.312592 48.0448-41.752258 13.863159-1.564514 27.136108-.336426 39.865478 5.169006 4.965454 2.147583 9.545044 5.25882 14.080689 8.262756.824951.546326 1.269287 3.080414.728759 4.049897-4.020019 7.211181-8.332885 14.259124-12.880981 21.908172-2.835938-1.94223-5.273804-3.823974-7.905274-5.378143-13.135376-7.75827-26.912475-9.960754-41.239868-3.759491-14.07727 6.093018-14.120239 24.921051-6.036499 34.324005 6.171143 7.178406 14.005738 12.087769 22.166992 16.652527 10.112793 5.65625 20.3573 11.154236 30.032349 17.501709 31.018433 20.35022 32.644775 60.511475 8.176514 83.414368-8.784668 8.222595-19.993531 12.057922-31.842163 13.977172-15.63086 2.531678-30.731934.160889-45.484864-4.903076-7.971801-2.736389-15.690673-6.147888-21.842651-12.484375 4.172607-7.355163 8.270874-14.50476 12.289795-21.698791 1.686523-3.019104 3.082764-3.222046 6.158691-1.043396 11.397583 8.073181 23.743531 14.013244 38.239014 13.093262 8.797119-.558411 17.414917-2.673218 23.019653-9.95221 8.844483-11.486816 5.604981-27.862427-7.274414-36.446838-8.226196-5.483033-17.180053-9.888245-25.884521-14.63617-9.742554-5.314087-19.681397-10.194336-27.672363-18.273803-10.10376-10.216126-15.065308-22.335511-15.02356-36.604554.010742-3.663055.105835-7.325805.284424-11.419769z"/><path d="m1417 464c.005127-6.829407.10022-13.160645-.023315-19.487549-.059937-3.069.85205-4.610779 4.229003-4.538727 7.158936.152771 14.32544.145386 21.484742.000122 3.269653-.066314 4.54956 1.263611 4.315551 4.436188-.122192 1.656159-.005859 3.32956-.005859 4.995178.001587 49.636383-.002075 99.272767.007202 148.90918.001221 6.643128.03064 6.669373 6.525269 6.678162 14.158081.019165 28.317993.141296 42.4729-.06836 4.371338-.064758 6.407593 1.000367 6.077881 5.804505-.375366 5.471008-.263916 10.994629-.033447 16.481506.158691 3.777161-1.367066 4.855103-4.978394 4.839233-24.984253-.109802-49.970337-.17871-74.953003.045411-5.024048.044983-5.157104-2.496582-5.152343-6.19336.055664-43.473388.034667-86.946899.033935-130.420349-.000244-10.327057-.000122-20.654083-.000122-31.48114z"/><path d="m1089 529c.000977-27.97525.109375-55.451294-.0979-82.924957-.036744-4.850098 1.454223-6.443634 6.241821-6.161194 6.139892.362182 12.325683.289184 18.475098.021515 4.113159-.179047 5.500122 1.252197 5.449951 5.402527-.189331 15.650207-.070313 31.304168-.070069 46.956726.000367 44.293396.003174 88.586853-.005615 132.880249-.001343 6.795837-.027099 6.805908-6.882812 6.822143-5.828125.013794-11.668824-.235168-17.480103.077149-4.366089.23468-5.737793-1.257019-5.712402-5.661988.166992-28.9729.08374-57.947326.082153-86.921203-.000244-3.330322-.000122-6.660645-.000122-10.490967z"/></g><path d="m1789.949829 604.116211c-10.850952 3.528198-21.670166 2.864319-32.428955 2.881409-4.158569.006591-8.320435-.11908-12.474609.012512-3.050415.096557-4.067017-1.254273-4.056153-4.176697.067505-17.964905-.031372-35.930969.177491-53.893677.015258-1.306152 2.04956-3.732055 3.104858-3.7099 14.071167.2948 28.26709-.08081 42.169311 1.728577 20.09729 2.615662 27.225586 21.253845 21.779786 38.641724-2.90564 9.276733-8.910889 15.203979-18.271729 18.516052z" fill="#ffffff"/><path d="m1794.92041 505.834656c-4.685425 10.530151-13.471802 14.319092-23.689697 15.032287-8.447266.589539-16.97168-.019714-25.455078.185669-3.784058.091553-4.8573-1.395752-4.823975-4.992553.140137-15.144684.071167-30.291413.052735-45.437378-.003052-2.516053.141113-4.712952 3.589599-4.59961 10.774902.354187 21.660645-.232269 32.306275 1.109925 21.341064 2.690673 26.35913 20.986053 18.020141 38.70166z" fill="#ffffff"/><path d="m1604.875 499.963745c9.696777 22.427673 19.314575 44.550171 29.251221 67.405762-20.79773 0-41.044678 0-62.073242 0 2.573974-5.977905 4.911743-11.562317 7.372192-17.092163 7.197754-16.177979 14.405151-32.352173 21.757202-48.460083.513062-1.123932.544922-4.655518 3.692627-1.853516z" fill="#ffffff"/></svg>